<svg width="24" height="24" viewBox="0 0 24 24" fill="none" xmlns="http://www.w3.org/2000/svg">
<path d="M18 4C19.1046 4 20 4.89543 20 6V18C20 19.1046 19.1046 20 18 20H6C4.89543 20 4 19.1046 4 18V6C4 4.89543 4.89543 4 6 4H18ZM15.7715 9.11914C15.4525 8.85514 14.98 8.89892 14.7158 9.21777L11.4229 13.1904L9.23633 11.0039C8.94345 10.7113 8.4686 10.7112 8.17578 11.0039C7.8832 11.2967 7.88322 11.7716 8.17578 12.0645L10.9453 14.834C11.0945 14.9832 11.3 15.0625 11.5107 15.0527C11.7214 15.0429 11.9181 14.9446 12.0527 14.7822L15.8711 10.1748C16.1353 9.85585 16.0904 9.3834 15.7715 9.11914Z" fill="black"/>
</svg>
