<svg width="24" height="24" viewBox="0 0 24 24" fill="none" xmlns="http://www.w3.org/2000/svg">
<path d="M17.3605 5.22071C17.6534 4.92814 18.1282 4.92814 18.4211 5.22071C18.714 5.5136 18.714 5.98934 18.4211 6.28223L13.0607 11.6416L18.7824 17.3643C19.0753 17.6572 19.0753 18.1319 18.7824 18.4248C18.4895 18.7176 18.0147 18.7177 17.7219 18.4248L12.0002 12.7031L6.2785 18.4248C5.98561 18.7177 5.50987 18.7177 5.21697 18.4248C4.92441 18.132 4.92443 17.6571 5.21697 17.3643L10.9387 11.6416L5.57928 6.28223C5.28639 5.98934 5.28639 5.5136 5.57928 5.22071C5.87219 4.92826 6.34707 4.92802 6.63983 5.22071L11.9992 10.5811L17.3605 5.22071Z" fill="black"/>
</svg>
