<svg width="24" height="24" viewBox="0 0 24 24" fill="none" xmlns="http://www.w3.org/2000/svg">
<path d="M19.123 17.4111C19.5372 17.4112 19.873 17.7469 19.873 18.1611C19.8729 18.5752 19.5371 18.9111 19.123 18.9111H4.87695C4.46305 18.9109 4.12713 18.575 4.12695 18.1611C4.12695 17.7471 4.46294 17.4114 4.87695 17.4111H19.123ZM14.7471 4.88672C14.9462 4.88698 15.1378 4.96631 15.2783 5.10742L17.5508 7.39063C17.6917 7.53231 17.7708 7.72493 17.7695 7.9248C17.7681 8.12452 17.6866 8.3153 17.5439 8.45508L10.4961 15.3594C10.404 15.4495 10.2904 15.5144 10.166 15.5479L7.17578 16.3496C6.91706 16.4189 6.64064 16.3446 6.45117 16.1553C6.26176 15.9658 6.18757 15.6894 6.25684 15.4307L7.07031 12.3936C7.1044 12.2665 7.17166 12.1506 7.26465 12.0576L14.2158 5.10645C14.3566 4.96563 14.5479 4.88655 14.7471 4.88672ZM8.4668 12.9756L8.04199 14.5635L9.58691 14.1494L15.9541 7.91309L14.7441 6.69824L8.4668 12.9756Z" fill="black"/>
</svg>
