<svg width="24" height="24" viewBox="0 0 24 24" fill="none" xmlns="http://www.w3.org/2000/svg">
<path fill-rule="evenodd" clip-rule="evenodd" d="M11.6992 4.94155C11.8872 4.8874 12.086 4.8874 12.274 4.94155C12.6747 5.05526 13.0785 5.16047 13.4838 5.26644C15.3875 5.76229 17.3206 6.26665 19.041 7.66755L19.8331 8.31269C20.1542 8.57415 20.3151 8.96247 20.3151 9.34925V14.7641C20.3151 14.918 20.2539 15.0655 20.1451 15.1744C20.0363 15.2832 19.8888 15.3443 19.7349 15.3443C19.581 15.3443 19.4335 15.2832 19.3247 15.1744C19.2159 15.0655 19.1547 14.918 19.1547 14.7641V10.9404L19.0286 11.0433C18.4587 11.5054 17.8361 11.8983 17.1737 12.2137C17.2046 12.2844 17.2203 12.3609 17.2209 12.4435V15.7651C17.2208 16.1934 17.0915 16.6117 16.8499 16.9653C16.6082 17.3189 16.2654 17.5913 15.8664 17.7469L12.7722 18.9537C12.2752 19.1474 11.7236 19.1474 11.2266 18.9537L8.13239 17.7469C7.73335 17.5913 7.39057 17.3189 7.1489 16.9653C6.90723 16.6117 6.77792 16.1934 6.7779 15.7651V12.4435C6.77842 12.3594 6.79492 12.281 6.82741 12.2083C6.18536 11.8997 5.55879 11.5198 4.95774 11.031L4.16562 10.3858C3.52357 9.86211 3.52357 8.83638 4.16562 8.31269L4.97011 7.65517C6.67734 6.26278 8.5973 5.76074 10.4871 5.26722C10.8923 5.16309 11.2964 5.05453 11.6992 4.94155ZM19.1547 9.35002C19.1547 9.2804 19.1269 9.23399 19.1006 9.21233L18.3085 8.56719C16.6407 7.41537 15.1539 6.90715 13.268 6.4113C12.8399 6.30033 12.4129 6.18532 11.987 6.0663C11.5461 6.19084 11.1175 6.30378 10.7014 6.41362C8.82936 6.9056 7.19794 7.33492 5.70421 8.55481L4.89895 9.21156C4.87187 9.23322 4.84402 9.27886 4.84402 9.34848C4.84402 9.4181 4.87187 9.46451 4.89817 9.48617L5.69106 10.1313C7.19794 11.3589 8.84406 11.7914 10.7308 12.2872C11.1459 12.3945 11.5729 12.5095 12.0118 12.6322C12.4527 12.5077 12.8812 12.3947 13.2974 12.2849C15.1694 11.7929 16.8008 11.3636 18.2945 10.1445L19.0998 9.48694C19.1269 9.46528 19.1547 9.41964 19.1547 9.35002ZM13.5124 13.4313C14.3634 13.2093 15.2197 12.9849 16.0605 12.6794V15.7651C16.0605 16.1635 15.8161 16.5208 15.4448 16.6663L12.3506 17.8722C12.1247 17.9603 11.874 17.9603 11.6482 17.8722L8.55398 16.6655C8.37265 16.5948 8.21687 16.4711 8.10701 16.3104C7.99716 16.1498 7.93833 15.9597 7.93823 15.7651V12.6724C8.78836 12.9818 9.65474 13.2077 10.5142 13.4321C10.9203 13.538 11.3241 13.6432 11.7248 13.7569C11.9127 13.8111 12.1115 13.8111 12.2995 13.7569C12.701 13.6425 13.1056 13.5373 13.5124 13.4313Z" fill="black"/>
</svg>
