<svg width="24" height="24" viewBox="0 0 24 24" fill="none" xmlns="http://www.w3.org/2000/svg">
<path d="M12 4.5C16.1421 4.5 19.5 7.85786 19.5 12C19.4999 16.1421 16.1421 19.5 12 19.5C7.85793 19.5 4.5001 16.1421 4.5 12C4.5 7.85786 7.85786 4.5 12 4.5ZM12 15.0137C11.4477 15.0137 11 15.4614 11 16.0137C11.0002 16.5658 11.4479 17.0137 12 17.0137C12.5521 17.0137 12.9998 16.5658 13 16.0137C13 15.4614 12.5523 15.0137 12 15.0137ZM12 6.98633C11.4478 6.98633 11.0001 7.43416 11 7.98633V13.2266C11 13.7788 11.4477 14.2266 12 14.2266C12.5523 14.2266 13 13.7788 13 13.2266V7.98633C12.9999 7.43416 12.5522 6.98633 12 6.98633Z" fill="#E50000"/>
</svg>
