<svg width="24" height="24" viewBox="0 0 24 24" fill="none" xmlns="http://www.w3.org/2000/svg">
<path d="M7 11.2559C7.55212 11.2559 7.99974 11.7038 8 12.2559V18.9824C8 19.5347 7.55228 19.9824 7 19.9824C6.44772 19.9824 6 19.5347 6 18.9824V12.2559C6.00026 11.7038 6.44788 11.2559 7 11.2559ZM12 7.53027C12.5522 7.53027 12.9999 7.9781 13 8.53027V18.9824C13 19.5347 12.5523 19.9824 12 19.9824C11.4477 19.9824 11 19.5347 11 18.9824V8.53027C11.0001 7.9781 11.4478 7.53027 12 7.53027ZM17 4.24707C17.5522 4.24707 17.9998 4.69493 18 5.24707V18.9824C18 19.5347 17.5523 19.9824 17 19.9824C16.4477 19.9824 16 19.5347 16 18.9824V5.24707C16.0002 4.69493 16.4478 4.24707 17 4.24707Z" fill="black"/>
</svg>
