<svg width="20" height="18" viewBox="0 0 20 18" fill="none" xmlns="http://www.w3.org/2000/svg">
<rect width="20" height="18" rx="1" fill="white"/>
<g transform="translate(10 9)">
<path d="M0 -3.5C1.933 -3.5 3.5 -1.933 3.5 0H0V-3.5Z" fill="#CD2E3A"/>
<path d="M3.5 0C3.5 1.933 1.933 3.5 0 3.5C-1.933 3.5 -3.5 1.933 -3.5 0C-3.5 -1.933 -1.933 -3.5 0 -3.5V0H3.5Z" fill="#0047A0"/>
<path d="M0 3.5C-1.933 3.5 -3.5 1.933 -3.5 0H0V3.5Z" fill="#CD2E3A"/>
</g>
<g fill="#111111">
<rect x="1.7" y="3.2" width="4.4" height="0.9" rx="0.45" transform="rotate(-35 1.7 3.2)"/>
<rect x="2.4" y="4.2" width="4.4" height="0.9" rx="0.45" transform="rotate(-35 2.4 4.2)"/>
<rect x="13.7" y="13.6" width="4.4" height="0.9" rx="0.45" transform="rotate(-35 13.7 13.6)"/>
<rect x="14.4" y="14.6" width="4.4" height="0.9" rx="0.45" transform="rotate(-35 14.4 14.6)"/>
<rect x="13.8" y="4.7" width="4.4" height="0.9" rx="0.45" transform="rotate(35 13.8 4.7)"/>
<rect x="13" y="5.8" width="4.4" height="0.9" rx="0.45" transform="rotate(35 13 5.8)"/>
<rect x="2.2" y="12.8" width="4.4" height="0.9" rx="0.45" transform="rotate(35 2.2 12.8)"/>
<rect x="1.4" y="13.9" width="4.4" height="0.9" rx="0.45" transform="rotate(35 1.4 13.9)"/>
</g>
</svg>
