<svg width="24" height="24" viewBox="0 0 24 24" fill="none" xmlns="http://www.w3.org/2000/svg">
<path d="M20.8091 7.32486C21.2362 7.3932 21.5006 7.83125 21.3266 8.22721L21.1733 8.55729C20.6049 9.72569 19.8066 10.7532 18.8423 11.5983L20.4057 13.4352C20.6742 13.7507 20.6362 14.2244 20.3208 14.4928C20.0054 14.7611 19.5326 14.723 19.2641 14.4079L17.6401 12.5016C16.701 13.1036 15.6555 13.5566 14.5425 13.8317L15.4497 15.7428C15.6274 16.117 15.4684 16.5651 15.0942 16.7428C14.72 16.9205 14.2729 16.7606 14.0952 16.3864L13.0053 14.0915C12.674 14.1228 12.3388 14.1403 12.0005 14.1403C11.5979 14.1403 11.2001 14.1166 10.8081 14.0729L9.70945 16.3864C9.53177 16.7606 9.0846 16.9205 8.71043 16.7428C8.33629 16.5651 8.17729 16.117 8.35496 15.7428L9.28172 13.7878C8.18124 13.4973 7.1499 13.0353 6.22703 12.4245L4.5405 14.4079C4.27203 14.7233 3.7983 14.7613 3.48289 14.4928C3.16763 14.2243 3.12952 13.7506 3.39793 13.4352L5.04148 11.5036C4.1283 10.6776 3.37114 9.68367 2.82566 8.55729L2.67234 8.22623C2.49938 7.83061 2.76351 7.39409 3.18992 7.32584C3.51855 7.27328 3.83641 7.46135 3.9741 7.76432C5.34328 10.7824 8.47401 12.7594 12.0005 12.7594C15.5278 12.7594 18.6468 10.7817 20.0259 7.76236C20.1639 7.46038 20.4812 7.27261 20.8091 7.32486Z" fill="black"/>
</svg>
