<svg width="24" height="24" viewBox="0 0 24 24" fill="none" xmlns="http://www.w3.org/2000/svg">
<path d="M11.9995 4.01025C13.2256 4.01025 14.4337 4.16846 15.3589 4.47119C15.8187 4.62167 16.2341 4.81595 16.5493 5.06494C16.8561 5.30741 17.1702 5.68958 17.1704 6.20752V6.89111H18.2515C19.631 6.89111 20.6637 8.02602 20.7759 9.354C20.7827 9.39472 20.7876 9.43634 20.7876 9.479V17.4009C20.7874 18.8289 19.7132 20.1021 18.2515 20.1021H5.74854C4.28676 20.1021 3.21262 18.8289 3.2124 17.4009V9.479C3.21241 9.43634 3.21727 9.39472 3.22412 9.354C3.33626 8.02602 4.36896 6.89111 5.74854 6.89111H6.82861V6.20752C6.82881 5.68944 7.14384 5.3074 7.45068 5.06494C7.76586 4.81594 8.18044 4.62169 8.64014 4.47119C9.56523 4.16841 10.7734 4.0103 11.9995 4.01025ZM19.2876 13.6626C18.9 13.9105 18.4506 14.1311 17.9536 14.3228C16.3375 14.9459 14.1956 15.2808 11.9995 15.2808C9.80357 15.2807 7.66235 14.9459 6.04639 14.3228C5.54937 14.1311 5.09997 13.9105 4.7124 13.6626V17.4009C4.71261 18.1284 5.23765 18.6021 5.74854 18.6021H18.2515C18.7624 18.602 19.2874 18.1284 19.2876 17.4009V13.6626ZM5.74854 8.39111C5.23761 8.39111 4.71253 8.86561 4.7124 9.59326V11.4312C4.7124 11.5659 4.77963 11.7841 5.08545 12.0688C5.3921 12.3542 5.88652 12.6534 6.58643 12.9233C7.98491 13.4626 9.93243 13.7807 11.9995 13.7808C14.0668 13.7808 16.015 13.4626 17.4136 12.9233C18.1135 12.6534 18.6079 12.3542 18.9146 12.0688C19.2204 11.7841 19.2876 11.5659 19.2876 11.4312V9.59326C19.2875 8.86561 18.7624 8.39111 18.2515 8.39111H5.74854ZM11.9995 5.51025C10.8811 5.5103 9.83968 5.65715 9.10693 5.89697C8.73813 6.01771 8.50519 6.1431 8.38037 6.2417C8.35585 6.26107 8.3404 6.27876 8.32861 6.29053V6.89111H15.6704V6.29053C15.6587 6.27878 15.6429 6.26082 15.6187 6.2417C15.4937 6.14314 15.2605 6.01757 14.8921 5.89697C14.1593 5.65722 13.1179 5.51025 11.9995 5.51025Z" fill="black"/>
</svg>
