<svg width="24" height="24" viewBox="0 0 24 24" fill="none" xmlns="http://www.w3.org/2000/svg">
<path d="M17.2495 11.0005C17.2495 8.10425 14.8988 5.75446 11.9995 5.75446C10.6078 5.75446 9.27302 6.30692 8.28857 7.29059C7.3042 8.2743 6.75055 9.60892 6.74951 11.0005L6.76221 11.4146C6.8897 13.4608 7.94767 15.135 9.15479 16.3414C9.79609 16.9823 10.4643 17.4752 11.021 17.8033C11.2995 17.9674 11.5415 18.0853 11.73 18.1597C11.9403 18.2427 12.0202 18.2457 11.9995 18.2457C11.9789 18.2457 12.0587 18.2427 12.269 18.1597C12.4575 18.0853 12.6995 17.9674 12.978 17.8033C13.5347 17.4752 14.2029 16.9823 14.8442 16.3414C16.1318 15.0546 17.2495 13.2355 17.2495 11.0005ZM13.2495 11.0005C13.2495 10.6691 13.1177 10.3512 12.8833 10.1168C12.6489 9.88234 12.331 9.75055 11.9995 9.75055C11.668 9.75055 11.3501 9.88234 11.1157 10.1168C10.8813 10.3512 10.7495 10.6691 10.7495 11.0005C10.7498 11.3317 10.8815 11.6492 11.1157 11.8834C11.3501 12.1176 11.6681 12.2496 11.9995 12.2496C12.3309 12.2496 12.6489 12.1176 12.8833 11.8834C13.1175 11.6492 13.2492 11.3317 13.2495 11.0005ZM14.7358 11.273C14.673 11.9021 14.395 12.494 13.9438 12.9449C13.4282 13.4603 12.7286 13.7496 11.9995 13.7496C11.2704 13.7496 10.5709 13.4603 10.0552 12.9449C9.60406 12.494 9.32606 11.9021 9.26318 11.273L9.24951 11.0005C9.24951 10.2712 9.53948 9.57193 10.0552 9.05621C10.5709 8.54049 11.2702 8.25055 11.9995 8.25055C12.7289 8.25055 13.4281 8.54049 13.9438 9.05621C14.4595 9.57193 14.7495 10.2712 14.7495 11.0005L14.7358 11.273ZM18.7495 11.0005C18.7495 13.7623 17.3671 15.9404 15.9048 17.4019C15.1711 18.1351 14.4018 18.7051 13.7397 19.0953C13.409 19.2902 13.0961 19.4452 12.8198 19.5543C12.5654 19.6547 12.2702 19.7457 11.9995 19.7457C11.7288 19.7457 11.4336 19.6547 11.1792 19.5543C10.9029 19.4452 10.59 19.2902 10.2593 19.0953C9.59724 18.7051 8.82791 18.1351 8.09424 17.4019C6.63194 15.9404 5.24954 13.7623 5.24951 11.0005V10.9996L5.2583 10.6656C5.34206 8.99801 6.04143 7.41591 7.22803 6.23004C8.49377 4.96514 10.2101 4.25446 11.9995 4.25446C15.7262 4.25446 18.7495 7.27485 18.7495 11.0005Z" fill="black"/>
</svg>
