<svg width="24" height="24" viewBox="0 0 24 24" fill="none" xmlns="http://www.w3.org/2000/svg">
<path d="M12.4708 19.5824C11.2393 19.5824 10.1506 19.4133 9.20481 19.0753C8.25903 18.7412 7.46416 18.2482 6.82022 17.5962C6.17628 16.9442 5.68931 16.1453 5.35929 15.1996C5.02927 14.2538 4.86426 13.1712 4.86426 11.9517C4.86426 10.7725 5.03128 9.71803 5.36532 8.78834C5.70339 7.85865 6.19238 7.06983 6.8323 6.42186C7.47624 5.76988 8.25701 5.27283 9.17463 4.93074C10.0963 4.58865 11.1386 4.4176 12.3018 4.4176C13.4327 4.4176 14.4227 4.60274 15.2719 4.973C16.1251 5.33924 16.8375 5.83628 17.409 6.46412C17.9845 7.08794 18.4152 7.79023 18.7009 8.57101C18.9907 9.35179 19.1356 10.1567 19.1356 10.9858C19.1356 11.5694 19.1074 12.161 19.051 12.7606C18.9947 13.3603 18.876 13.9117 18.6949 14.4148C18.5138 14.9138 18.234 15.3163 17.8557 15.6221C17.4814 15.928 16.9743 16.081 16.3344 16.081C16.0527 16.081 15.7428 16.0367 15.4047 15.9481C15.0667 15.8596 14.7668 15.7127 14.5052 15.5074C14.2436 15.3022 14.0887 15.0265 14.0404 14.6804H13.968C13.8714 14.9138 13.7224 15.1352 13.5212 15.3444C13.324 15.5537 13.0644 15.7208 12.7425 15.8455C12.4245 15.9703 12.0361 16.0246 11.5773 16.0085C11.0541 15.9884 10.5933 15.8717 10.1949 15.6584C9.79643 15.441 9.46239 15.1472 9.19274 14.777C8.92711 14.4027 8.72588 13.97 8.58904 13.479C8.45623 12.984 8.38983 12.4507 8.38983 11.8793C8.38983 11.3359 8.47032 10.8389 8.6313 10.3881C8.79229 9.93737 9.01565 9.54296 9.3014 9.20489C9.59118 8.86682 9.92924 8.59717 10.3156 8.39594C10.706 8.19069 11.1266 8.06391 11.5773 8.01561C11.9798 7.97537 12.346 7.99348 12.676 8.06995C13.0061 8.14239 13.2777 8.25307 13.491 8.40198C13.7043 8.54686 13.8392 8.70785 13.8955 8.88493H13.968V8.2088H15.2478V13.6662C15.2478 14.0043 15.3424 14.3021 15.5315 14.5596C15.7207 14.8172 15.9964 14.946 16.3586 14.946C16.7691 14.946 17.083 14.8052 17.3003 14.5234C17.5217 14.2417 17.6726 13.807 17.7531 13.2194C17.8376 12.6319 17.8799 11.8793 17.8799 10.9616C17.8799 10.4223 17.8054 9.89109 17.6565 9.36789C17.5116 8.84066 17.2903 8.34765 16.9925 7.88884C16.6987 7.43003 16.3264 7.02556 15.8756 6.67542C15.4249 6.32527 14.8956 6.0516 14.2879 5.85439C13.6842 5.65316 12.998 5.55255 12.2293 5.55255C11.2835 5.55255 10.4363 5.69944 9.68777 5.99324C8.94321 6.28302 8.30933 6.70761 7.78613 7.26703C7.26696 7.82243 6.87053 8.49857 6.59686 9.29544C6.32721 10.0883 6.19238 10.9898 6.19238 12C6.19238 13.0263 6.32721 13.9378 6.59686 14.7347C6.87053 15.5316 7.27299 16.2037 7.80424 16.7511C8.33952 17.2984 9.00157 17.7129 9.79039 17.9947C10.5792 18.2804 11.4888 18.4233 12.5191 18.4233C12.9618 18.4233 13.3985 18.381 13.8291 18.2965C14.2597 18.212 14.6401 18.1194 14.9701 18.0188C15.3001 17.9182 15.5376 17.8437 15.6824 17.7954L16.0205 18.9062C15.771 19.0109 15.445 19.1155 15.0425 19.2202C14.6441 19.3248 14.2175 19.4113 13.7627 19.4797C13.3119 19.5482 12.8813 19.5824 12.4708 19.5824ZM11.7705 14.777C12.3098 14.777 12.7465 14.6683 13.0805 14.451C13.4146 14.2337 13.6581 13.9056 13.811 13.467C13.9639 13.0283 14.0404 12.4749 14.0404 11.8068C14.0404 11.1307 13.9559 10.6034 13.7868 10.2251C13.6178 9.84682 13.3683 9.58119 13.0383 9.42826C12.7082 9.27532 12.3018 9.19885 11.8188 9.19885C11.36 9.19885 10.9676 9.31959 10.6416 9.56107C10.3196 9.79852 10.0721 10.1165 9.89906 10.5149C9.73003 10.9093 9.64551 11.34 9.64551 11.8068C9.64551 12.322 9.71393 12.8069 9.85076 13.2617C9.9876 13.7125 10.211 14.0787 10.5209 14.3604C10.8308 14.6381 11.2473 14.777 11.7705 14.777Z" fill="black"/>
</svg>
