<svg width="25" height="25" viewBox="0 0 25 25" fill="none" xmlns="http://www.w3.org/2000/svg">
<path d="M14.4048 4.4867C16.0346 4.47655 17.3233 5.82638 17.3336 7.44959L17.3912 16.7474C17.4012 18.3707 16.1294 19.7363 14.4996 19.7465L9.81988 19.7758C8.19011 19.7858 6.90142 18.4361 6.89117 16.8129L6.83355 7.51502C6.82362 5.89179 8.09535 4.52614 9.72516 4.51599L14.4048 4.4867ZM9.73394 6.01599C8.9782 6.02092 8.32832 6.66507 8.33355 7.50623L8.39117 16.8031C8.39641 17.6444 9.05519 18.2805 9.81109 18.2758L14.4908 18.2465C15.2466 18.2416 15.8964 17.5975 15.8912 16.7562L15.8336 7.45935C15.8283 6.61818 15.1704 5.9822 14.4146 5.9867L9.73394 6.01599ZM12.9673 16.4945C13.3814 16.4919 13.7195 16.8256 13.7222 17.2396C13.7248 17.6537 13.3912 17.9918 12.9771 17.9945L11.2574 18.0053C10.8432 18.0078 10.5052 17.6743 10.5025 17.2601C10.4999 16.8459 10.8334 16.5078 11.2476 16.5053L12.9673 16.4945Z" fill="black"/>
</svg>
