<svg width="24" height="24" viewBox="0 0 24 24" fill="none" xmlns="http://www.w3.org/2000/svg">
<path d="M12 3.85156C12.8213 3.85156 13.6097 4.17805 14.1904 4.75879C14.7709 5.33946 15.0966 6.12716 15.0967 6.94824V9.0127H16.9609C18.2504 9.01312 19.1279 10.1759 19.1279 11.3877V17.8857C19.1277 19.0973 18.2502 20.2603 16.9609 20.2607H7.04004C5.75047 20.2606 4.87231 19.0975 4.87207 17.8857V11.3877C4.87207 10.1758 5.7503 9.01283 7.04004 9.0127H8.90332V6.94824C8.9034 6.12701 9.22984 5.33949 9.81055 4.75879C10.3913 4.1781 11.1788 3.85161 12 3.85156ZM7.04004 10.5127C6.76451 10.5128 6.37305 10.8053 6.37305 11.3877V17.8857C6.37327 18.4678 6.76458 18.7606 7.04004 18.7607H16.9609C17.2364 18.7602 17.6277 18.4675 17.6279 17.8857V11.3877C17.6279 10.8056 17.2364 10.5132 16.9609 10.5127H7.04004ZM12 5.35156C11.5766 5.35161 11.1705 5.51995 10.8711 5.81934C10.5717 6.11873 10.4034 6.52484 10.4033 6.94824V9.0127H13.5967V6.94824C13.5966 6.52484 13.4283 6.11873 13.1289 5.81934C12.8295 5.52002 12.4234 5.35156 12 5.35156Z" fill="black"/>
</svg>
