<svg width="24" height="24" viewBox="0 0 24 24" fill="none" xmlns="http://www.w3.org/2000/svg">
<path d="M11.9683 6C12.3825 6 12.7183 6.33579 12.7183 6.75V11.1475H17.2505C17.6645 11.1477 18.0005 11.4834 18.0005 11.8975C18.0005 12.3115 17.6645 12.6472 17.2505 12.6475H12.7183V17.25C12.7183 17.6642 12.3825 18 11.9683 18C11.554 18 11.2183 17.6642 11.2183 17.25V12.6475H6.75049C6.3363 12.6475 5.99954 12.3116 5.99951 11.8975C5.99951 11.4832 6.33628 11.1475 6.75049 11.1475H11.2183V6.75C11.2183 6.33579 11.554 6 11.9683 6Z" fill="black"/>
</svg>
