<svg width="24" height="24" viewBox="0 0 24 24" fill="none" xmlns="http://www.w3.org/2000/svg">
<path d="M12 11.7557C13.9474 11.7558 15.6437 12.825 16.8232 14.0994C17.9861 15.3561 18.7919 16.9713 18.792 18.2713C18.7919 18.9749 18.5523 19.5666 18.0566 19.993C17.5977 20.3876 16.9946 20.5742 16.3955 20.6736C15.2209 20.8684 13.5942 20.7869 12 20.7869C10.4057 20.7869 8.77894 20.8685 7.60449 20.6736C7.0054 20.5742 6.40232 20.3877 5.94336 19.993C5.44781 19.5666 5.2081 18.9749 5.20801 18.2713C5.20806 16.9713 6.01405 15.3561 7.17676 14.0994C8.35614 12.8249 10.0525 11.7557 12 11.7557ZM12 13.2557C10.6107 13.2557 9.28549 14.0297 8.27832 15.118C7.2549 16.224 6.70807 17.4919 6.70801 18.2713C6.70808 18.607 6.80633 18.7569 6.92188 18.8563C7.07429 18.9872 7.35683 19.1122 7.85059 19.1942C8.86268 19.362 10.2576 19.2869 12 19.2869C13.7422 19.2869 15.1371 19.362 16.1494 19.1942C16.643 19.1123 16.9256 18.9872 17.0781 18.8563C17.1937 18.7568 17.2919 18.6069 17.292 18.2713C17.2919 17.4919 16.7454 16.2241 15.7217 15.118C14.7143 14.0297 13.3893 13.2558 12 13.2557ZM12.001 3.19611C14.2683 3.19646 16.1064 5.03517 16.1064 7.30255C16.1062 9.56979 14.2682 11.4077 12.001 11.408C9.73346 11.408 7.89478 9.57001 7.89453 7.30255C7.89461 5.03495 9.73335 3.19611 12.001 3.19611ZM12.001 4.69611C10.5618 4.69611 9.39461 5.86337 9.39453 7.30255C9.39478 8.74159 10.5619 9.90802 12.001 9.90802C13.4398 9.90766 14.6062 8.74137 14.6064 7.30255C14.6064 5.86359 13.4399 4.69646 12.001 4.69611Z" fill="black"/>
</svg>
