<svg width="16" height="16" viewBox="0 0 16 16" fill="none" xmlns="http://www.w3.org/2000/svg">
<path d="M6.72461 0C10.4385 0 13.4492 3.0107 13.4492 6.72461C13.4492 8.27634 12.9219 9.7039 12.0391 10.8418L15.0361 13.8389C15.3287 14.1318 15.3289 14.6066 15.0361 14.8994C14.7433 15.1922 14.2685 15.192 13.9756 14.8994L10.9951 11.9189C9.8337 12.8749 8.34632 13.4492 6.72461 13.4492C3.0107 13.4492 0 10.4385 0 6.72461C6.59701e-05 3.01074 3.01074 6.5972e-05 6.72461 0ZM6.72461 1.5C3.83917 1.50007 1.50007 3.83917 1.5 6.72461C1.5 9.61011 3.83913 11.9492 6.72461 11.9492C9.61015 11.9492 11.9492 9.61015 11.9492 6.72461C11.9492 3.83913 9.61011 1.5 6.72461 1.5Z" fill="black"/>
</svg>
