<svg width="24" height="24" viewBox="0 0 24 24" fill="none" xmlns="http://www.w3.org/2000/svg">
<path d="M12 5.09473C16.3917 5.09473 20.2725 7.77424 21.6259 11.7793C21.6811 11.9173 21.6811 12.0827 21.6259 12.2207C20.2725 16.212 16.3917 18.9053 12 18.9053C7.59452 18.9052 3.72739 16.2257 2.37399 12.2207C2.3187 12.0788 2.3187 11.9212 2.37399 11.7793C3.72739 7.78813 7.60833 5.09484 12 5.09473ZM12 6.47559C8.27129 6.4757 4.99879 8.68564 3.75583 12C4.98498 15.3144 8.27129 17.5243 12 17.5244C15.7288 17.5244 19.0021 15.3145 20.2451 12C19.0159 8.68548 15.7288 6.47559 12 6.47559ZM12.2119 7.8623C14.3928 7.97379 16.1423 9.79263 16.1425 12L16.1377 12.2119C16.0262 14.3929 14.2073 16.1424 12 16.1426L11.7871 16.1377C9.67662 16.0295 7.97015 14.3225 7.86227 12.2119L7.85641 12C7.85662 9.72159 9.72156 7.8567 12 7.85645L12.2119 7.8623ZM12 9.2373C10.4811 9.23756 9.23748 10.4812 9.23727 12L9.25192 12.2812C9.38465 13.5765 10.4225 14.614 11.7177 14.7471L12 14.7617C13.4239 14.7615 14.6048 13.6693 14.747 12.2812L14.7617 12C14.7615 10.5761 13.6693 9.39419 12.2812 9.25195L12 9.2373Z" fill="black"/>
</svg>
