<svg width="24" height="24" viewBox="0 0 24 24" fill="none" xmlns="http://www.w3.org/2000/svg">
<path d="M12.0005 4.5C16.1424 4.50026 19.5005 7.85806 19.5005 12C19.5005 16.142 16.1424 19.4997 12.0005 19.5C7.85835 19.5 4.49951 16.1421 4.49951 12C4.49954 7.85789 7.85837 4.5 12.0005 4.5ZM15.772 9.11914C15.453 8.85496 14.9806 8.89887 14.7163 9.21777L11.4233 13.1904L9.23682 11.0039C8.94396 10.7112 8.46914 10.7112 8.17627 11.0039C7.88341 11.2968 7.88348 11.7716 8.17627 12.0645L10.9458 14.834C11.0951 14.9832 11.3004 15.0626 11.5112 15.0527C11.722 15.0428 11.9186 14.9447 12.0532 14.7822L15.8716 10.1748C16.1358 9.85588 16.0908 9.38341 15.772 9.11914Z" fill="#00A600"/>
</svg>
