<svg width="24" height="24" viewBox="0 0 24 24" fill="none" xmlns="http://www.w3.org/2000/svg">
<path d="M12.3857 4.50932C16.3486 4.71005 19.5 7.98773 19.5 12.0005L19.4907 12.3857C19.29 16.3484 16.0131 19.4997 12.0005 19.5L11.6143 19.4907C7.77914 19.2964 4.70358 16.2209 4.50932 12.3857L4.5 12.0005C4.5 7.85838 7.85838 4.5 12.0005 4.5L12.3857 4.50932ZM12.0005 6.09039C8.73673 6.09039 6.09039 8.73673 6.09039 12.0005C6.09067 15.2641 8.7369 17.9096 12.0005 17.9096C15.2639 17.9093 17.9093 15.2639 17.9096 12.0005C17.9096 8.7369 15.2641 6.09067 12.0005 6.09039ZM11.9094 7.72945C12.3485 7.72945 12.7046 8.0855 12.7046 8.52464V11.4725L15.9289 10.904C16.3614 10.8278 16.7741 11.1166 16.8504 11.5491C16.9265 11.9815 16.6377 12.3933 16.2053 12.4696L12.4074 13.1395C12.3165 13.1555 12.2265 13.1526 12.1403 13.1384C12.0671 13.1607 11.9899 13.1767 11.9094 13.1767C11.4706 13.1763 11.1142 12.8205 11.1142 12.3815V8.52464C11.1142 8.08575 11.4706 7.72984 11.9094 7.72945Z" fill="black"/>
</svg>
